<svg xmlns="http://www.w3.org/2000/svg" width="35" height="36" viewBox="0 0 35 36">
    <g fill="none" fill-rule="evenodd" transform="translate(0 .5)">
        <rect width="35" height="35" fill="#FAFBFC" rx="4"/>
        <path fill="#BEBEBE" fill-opacity=".45" fill-rule="nonzero" d="M5.05 20.565c1.4 1.5 3.668 1.5 5.068 0 1.092-1.17 1.316-2.88.728-4.32l4.2-4.5c-.364-.24-.7-.51-1.008-.84a5.77 5.77 0 0 1-.784-1.08l-4.2 4.5c-1.288-.63-2.912-.39-4.004.78-1.4 1.5-1.4 3.96 0 5.46zm1.54-3.81c.56-.6 1.456-.6 2.016 0s.56 1.56 0 2.16c-.56.6-1.456.6-2.016 0s-.56-1.56 0-2.16zm8.708 14.79c1.4 1.5 3.668 1.5 5.068 0 1.4-1.5 1.4-3.93 0-5.43-1.092-1.17-2.688-1.41-4.032-.78l-4.2-4.5a5.77 5.77 0 0 1-.784 1.08c-.308.33-.644.6-1.008.84l4.2 4.5c-.56 1.38-.336 3.12.756 4.29zm1.54-3.81c.56-.6 1.456-.6 2.016 0s.56 1.56 0 2.16c-.56.6-1.456.6-2.016 0s-.56-1.56 0-2.16zm13.804-12.63c-1.4-1.5-3.668-1.5-5.068 0-1.092 1.17-1.316 2.88-.728 4.32l-4.2 4.5c.364.24.7.51 1.008.84.308.33.56.69.784 1.08l4.2-4.5c1.316.63 2.94.39 4.032-.78 1.372-1.5 1.372-3.96-.028-5.46zm-1.54 3.81c-.56.6-1.456.6-2.016 0s-.56-1.56 0-2.16c.56-.6 1.456-.6 2.016 0s.56 1.56 0 2.16zm-4.788-5.13c.308-.33.644-.6 1.008-.84l-4.2-4.5c.588-1.41.364-3.15-.728-4.32-1.4-1.5-3.668-1.5-5.068 0-1.4 1.5-1.4 3.93 0 5.43 1.092 1.17 2.688 1.41 4.032.78l4.2 4.5c.196-.36.448-.72.756-1.05zm-5.46-5.85c-.56.6-1.456.6-2.016 0s-.56-1.56 0-2.16c.56-.6 1.456-.6 2.016 0s.56 1.56 0 2.16z"/>
    </g>
</svg>
